<svg xmlns="http://www.w3.org/2000/svg" width="512" height="512" viewBox="0 0 512 512">
  <rect width="512" height="512" fill="#1a3a4a"/>
  <circle cx="160" cy="200" r="60" fill="#4fc3f7" opacity="0.3"/>
  <circle cx="350" cy="180" r="45" fill="#81c784" opacity="0.3"/>
  <rect x="120" y="260" width="100" height="130" rx="5" fill="#4fc3f7" opacity="0.6"/>
  <rect x="140" y="280" width="60" height="8" rx="3" fill="#ffffff" opacity="0.8"/>
  <rect x="140" y="296" width="40" height="6" rx="3" fill="#ffffff" opacity="0.5"/>
  <rect x="140" y="310" width="50" height="6" rx="3" fill="#ffffff" opacity="0.5"/>
  <rect x="270" y="260" width="100" height="130" rx="5" fill="#81c784" opacity="0.6"/>
  <rect x="290" y="280" width="60" height="8" rx="3" fill="#ffffff" opacity="0.8"/>
  <rect x="290" y="296" width="40" height="6" rx="3" fill="#ffffff" opacity="0.5"/>
  <rect x="290" y="310" width="50" height="6" rx="3" fill="#ffffff" opacity="0.5"/>
  <path d="M210,320 Q256,230 302,320" stroke="#ffb74d" stroke-width="4" fill="none" stroke-linecap="round"/>
  <circle cx="256" cy="290" r="8" fill="#ffb74d"/>
  <text x="256" y="440" text-anchor="middle" font-family="sans-serif" font-size="22" fill="#ffffff" opacity="0.7">間隔重複</text>
  <text x="256" y="470" text-anchor="middle" font-family="sans-serif" font-size="14" fill="#ffffff" opacity="0.4">SPACED REPETITION</text>
</svg>