<svg xmlns="http://www.w3.org/2000/svg" viewBox="0 0 800 450">
  <defs>
    <linearGradient id="bg" x1="0%" y1="0%" x2="100%" y2="100%">
      <stop offset="0%" style="stop-color:#1a2332"/>
      <stop offset="100%" style="stop-color:#2d4059"/>
    </linearGradient>
    <linearGradient id="gold" x1="0%" y1="0%" x2="100%" y2="100%">
      <stop offset="0%" style="stop-color:#E8C547"/>
      <stop offset="100%" style="stop-color:#D4A82A"/>
    </linearGradient>
    <linearGradient id="building1" x1="0%" y1="0%" x2="0%" y2="100%">
      <stop offset="0%" style="stop-color:#3d5a80"/>
      <stop offset="100%" style="stop-color:#293b5a"/>
    </linearGradient>
    <linearGradient id="building2" x1="0%" y1="0%" x2="0%" y2="100%">
      <stop offset="0%" style="stop-color:#4a8c6f"/>
      <stop offset="100%" style="stop-color:#357a5c"/>
    </linearGradient>
    <linearGradient id="building3" x1="0%" y1="0%" x2="0%" y2="100%">
      <stop offset="0%" style="stop-color:#ee6c4d"/>
      <stop offset="100%" style="stop-color:#d45a3e"/>
    </linearGradient>
    <linearGradient id="coinGrad" x1="0%" y1="0%" x2="100%" y2="100%">
      <stop offset="0%" style="stop-color:#E8C547"/>
      <stop offset="100%" style="stop-color:#D4A82A"/>
    </linearGradient>
    <filter id="shadow">
      <feDropShadow dx="0" dy="2" stdDeviation="4" flood-color="#000" flood-opacity="0.25"/>
    </filter>
    <filter id="glow">
      <feGaussianBlur stdDeviation="3" result="blur"/>
      <feMerge><feMergeNode in="blur"/><feMergeNode in="SourceGraphic"/></feMerge>
    </filter>
  </defs>

  <!-- Background -->
  <rect width="800" height="450" fill="url(#bg)"/>

  <!-- Grid pattern -->
  <g opacity="0.04">
    <line x1="0" y1="75" x2="800" y2="75" stroke="#fff" stroke-width="0.5"/>
    <line x1="0" y1="150" x2="800" y2="150" stroke="#fff" stroke-width="0.5"/>
    <line x1="0" y1="225" x2="800" y2="225" stroke="#fff" stroke-width="0.5"/>
    <line x1="0" y1="300" x2="800" y2="300" stroke="#fff" stroke-width="0.5"/>
    <line x1="0" y1="375" x2="800" y2="375" stroke="#fff" stroke-width="0.5"/>
    <line x1="100" y1="0" x2="100" y2="450" stroke="#fff" stroke-width="0.5"/>
    <line x1="200" y1="0" x2="200" y2="450" stroke="#fff" stroke-width="0.5"/>
    <line x1="300" y1="0" x2="300" y2="450" stroke="#fff" stroke-width="0.5"/>
    <line x1="400" y1="0" x2="400" y2="450" stroke="#fff" stroke-width="0.5"/>
    <line x1="500" y1="0" x2="500" y2="450" stroke="#fff" stroke-width="0.5"/>
    <line x1="600" y1="0" x2="600" y2="450" stroke="#fff" stroke-width="0.5"/>
    <line x1="700" y1="0" x2="700" y2="450" stroke="#fff" stroke-width="0.5"/>
  </g>

  <!-- Decorative circles -->
  <circle cx="680" cy="55" r="90" fill="#4a8c6f" opacity="0.08"/>
  <circle cx="100" cy="410" r="110" fill="#3d5a80" opacity="0.08"/>

  <!-- Buildings skyline -->
  <!-- Building 1 -->
  <rect x="80" y="180" width="55" height="150" rx="3" fill="url(#building1)" opacity="0.6"/>
  <rect x="88" y="190" width="10" height="12" rx="1" fill="#E8C547" opacity="0.3"/>
  <rect x="104" y="190" width="10" height="12" rx="1" fill="#E8C547" opacity="0.3"/>
  <rect x="120" y="190" width="10" height="12" rx="1" fill="#E8C547" opacity="0.3"/>
  <rect x="88" y="210" width="10" height="12" rx="1" fill="#E8C547" opacity="0.3"/>
  <rect x="104" y="210" width="10" height="12" rx="1" fill="#E8C547" opacity="0.3"/>
  <rect x="120" y="210" width="10" height="12" rx="1" fill="#E8C547" opacity="0.3"/>
  <rect x="88" y="230" width="10" height="12" rx="1" fill="#E8C547" opacity="0.3"/>
  <rect x="104" y="230" width="10" height="12" rx="1" fill="#E8C547" opacity="0.3"/>
  <rect x="120" y="230" width="10" height="12" rx="1" fill="#E8C547" opacity="0.3"/>

  <!-- Building 2 (tallest) -->
  <rect x="145" y="130" width="65" height="200" rx="3" fill="url(#building2)" opacity="0.6"/>
  <rect x="145" y="120" width="65" height="12" rx="3" fill="#4a8c6f" opacity="0.5"/>
  <rect x="153" y="140" width="12" height="14" rx="1" fill="#88d4a8" opacity="0.4"/>
  <rect x="172" y="140" width="12" height="14" rx="1" fill="#88d4a8" opacity="0.4"/>
  <rect x="190" y="140" width="12" height="14" rx="1" fill="#88d4a8" opacity="0.4"/>
  <rect x="153" y="162" width="12" height="14" rx="1" fill="#88d4a8" opacity="0.4"/>
  <rect x="172" y="162" width="12" height="14" rx="1" fill="#88d4a8" opacity="0.4"/>
  <rect x="190" y="162" width="12" height="14" rx="1" fill="#88d4a8" opacity="0.4"/>
  <rect x="153" y="184" width="12" height="14" rx="1" fill="#88d4a8" opacity="0.4"/>
  <rect x="172" y="184" width="12" height="14" rx="1" fill="#88d4a8" opacity="0.4"/>
  <rect x="190" y="184" width="12" height="14" rx="1" fill="#88d4a8" opacity="0.4"/>
  <rect x="153" y="206" width="12" height="14" rx="1" fill="#88d4a8" opacity="0.4"/>
  <rect x="172" y="206" width="12" height="14" rx="1" fill="#88d4a8" opacity="0.4"/>
  <rect x="190" y="206" width="12" height="14" rx="1" fill="#88d4a8" opacity="0.4"/>

  <!-- Building 3 -->
  <rect x="220" y="200" width="50" height="130" rx="3" fill="url(#building3)" opacity="0.5"/>
  <rect x="228" y="210" width="9" height="11" rx="1" fill="#ffb088" opacity="0.3"/>
  <rect x="242" y="210" width="9" height="11" rx="1" fill="#ffb088" opacity="0.3"/>
  <rect x="256" y="210" width="9" height="11" rx="1" fill="#ffb088" opacity="0.3"/>
  <rect x="228" y="228" width="9" height="11" rx="1" fill="#ffb088" opacity="0.3"/>
  <rect x="242" y="228" width="9" height="11" rx="1" fill="#ffb088" opacity="0.3"/>
  <rect x="256" y="228" width="9" height="11" rx="1" fill="#ffb088" opacity="0.3"/>

  <!-- Coin stacks -->
  <!-- Coin stack row -->
  <ellipse cx="330" cy="310" rx="18" ry="6" fill="url(#coinGrad)" opacity="0.8"/>
  <rect x="312" y="295" width="36" height="15" rx="2" fill="url(#coinGrad)" opacity="0.8"/>
  <ellipse cx="330" cy="295" rx="18" ry="6" fill="url(#coinGrad)" opacity="0.85"/>
  <line x1="312" y1="302" x2="312" y2="308" stroke="#b8931c" stroke-width="1" opacity="0.5"/>
  <line x1="348" y1="302" x2="348" y2="308" stroke="#b8931c" stroke-width="1" opacity="0.5"/>
  <line x1="312" y1="292" x2="348" y2="292" stroke="#b8931c" stroke-width="1" opacity="0.4"/>

  <text x="330" y="304" text-anchor="middle" font-family="system-ui, sans-serif" font-size="9" fill="#8a6d15" font-weight="bold">派息</text>

  <!-- More coins -->
  <ellipse cx="370" cy="320" rx="14" ry="4.5" fill="url(#coinGrad)" opacity="0.7"/>
  <rect x="356" y="308" width="28" height="12" rx="2" fill="url(#coinGrad)" opacity="0.7"/>
  <ellipse cx="370" cy="308" rx="14" ry="4.5" fill="url(#coinGrad)" opacity="0.75"/>

  <!-- Coin stack 2 -->
  <ellipse cx="410" cy="300" rx="16" ry="5" fill="url(#coinGrad)" opacity="0.8"/>
  <rect x="394" y="283" width="32" height="17" rx="2" fill="url(#coinGrad)" opacity="0.8"/>
  <ellipse cx="410" cy="283" rx="16" ry="5" fill="url(#coinGrad)" opacity="0.85"/>
  <rect x="394" y="267" width="32" height="16" rx="2" fill="url(#coinGrad)" opacity="0.8"/>
  <ellipse cx="410" cy="267" rx="16" ry="5" fill="url(#coinGrad)" opacity="0.85"/>
  <line x1="394" y1="292" x2="394" y2="298" stroke="#b8931c" stroke-width="1" opacity="0.4"/>
  <line x1="394" y1="276" x2="394" y2="282" stroke="#b8931c" stroke-width="1" opacity="0.4"/>

  <!-- Title -->
  <text x="440" y="72" text-anchor="middle" font-family="system-ui, sans-serif" font-size="34" font-weight="bold" fill="#fff" letter-spacing="1">香港 REITs 投資實戰</text>
  <text x="440" y="105" text-anchor="middle" font-family="system-ui, sans-serif" font-size="18" fill="#a0b4c8" letter-spacing="0.5">每月收息嘅被動收入方案</text>

  <!-- Building icons row -->
  <rect x="530" y="200" width="45" height="130" rx="3" fill="url(#building1)" opacity="0.5"/>
  <rect x="536" y="210" width="8" height="10" rx="1" fill="#E8C547" opacity="0.25"/>
  <rect x="549" y="210" width="8" height="10" rx="1" fill="#E8C547" opacity="0.25"/>
  <rect x="562" y="210" width="8" height="10" rx="1" fill="#E8C547" opacity="0.25"/>
  <rect x="536" y="226" width="8" height="10" rx="1" fill="#E8C547" opacity="0.25"/>
  <rect x="549" y="226" width="8" height="10" rx="1" fill="#E8C547" opacity="0.25"/>
  <rect x="562" y="226" width="8" height="10" rx="1" fill="#E8C547" opacity="0.25"/>

  <rect x="585" y="180" width="55" height="150" rx="3" fill="url(#building2)" opacity="0.5"/>
  <rect x="585" y="170" width="55" height="12" rx="3" fill="#4a8c6f" opacity="0.4"/>
  <rect x="592" y="190" width="10" height="12" rx="1" fill="#88d4a8" opacity="0.3"/>
  <rect x="608" y="190" width="10" height="12" rx="1" fill="#88d4a8" opacity="0.3"/>
  <rect x="624" y="190" width="10" height="12" rx="1" fill="#88d4a8" opacity="0.3"/>
  <rect x="592" y="210" width="10" height="12" rx="1" fill="#88d4a8" opacity="0.3"/>
  <rect x="608" y="210" width="10" height="12" rx="1" fill="#88d4a8" opacity="0.3"/>
  <rect x="624" y="210" width="10" height="12" rx="1" fill="#88d4a8" opacity="0.3"/>

  <rect x="650" y="220" width="40" height="110" rx="3" fill="url(#building3)" opacity="0.4"/>
  <rect x="656" y="230" width="7" height="9" rx="1" fill="#ffb088" opacity="0.25"/>
  <rect x="668" y="230" width="7" height="9" rx="1" fill="#ffb088" opacity="0.25"/>
  <rect x="680" y="230" width="7" height="9" rx="1" fill="#ffb088" opacity="0.25"/>

  <!-- Arrow flow: Coins → Buildings → Dividend -->
  <text x="455" y="268" text-anchor="middle" font-family="system-ui, sans-serif" font-size="22" fill="#E8C547" opacity="0.6">➜</text>
  <text x="455" y="290" text-anchor="middle" font-family="system-ui, sans-serif" font-size="11" fill="#E8C547" opacity="0.5">投資</text>

  <text x="455" y="370" text-anchor="middle" font-family="system-ui, sans-serif" font-size="22" fill="#4a8c6f" opacity="0.6">➜</text>
  <text x="455" y="390" text-anchor="middle" font-family="system-ui, sans-serif" font-size="11" fill="#4a8c6f" opacity="0.5">收息</text>

  <!-- Stats row -->
  <rect x="50" y="350" width="700" height="55" rx="25" fill="url(#gold)" opacity="0.12" stroke="#E8C547" stroke-width="1.2"/>

  <text x="150" y="370" text-anchor="middle" font-family="system-ui, sans-serif" font-size="12" fill="#8a9cb0">最低入場</text>
  <text x="150" y="390" text-anchor="middle" font-family="system-ui, sans-serif" font-size="20" font-weight="bold" fill="#E8C547">$5,000</text>

  <text x="350" y="370" text-anchor="middle" font-family="system-ui, sans-serif" font-size="12" fill="#8a9cb0">平均派息率</text>
  <text x="350" y="390" text-anchor="middle" font-family="system-ui, sans-serif" font-size="20" font-weight="bold" fill="#E8C547">6.5-7.5%</text>

  <text x="550" y="370" text-anchor="middle" font-family="system-ui, sans-serif" font-size="12" fill="#8a9cb0">派息頻率</text>
  <text x="550" y="390" text-anchor="middle" font-family="system-ui, sans-serif" font-size="20" font-weight="bold" fill="#E8C547">每月/季</text>

  <rect x="650" y="370" width="12" height="12" rx="6" fill="#4a8c6f" opacity="0.6"/>
  <rect x="650" y="375" width="12" height="7" rx="1" fill="#4a8c6f" opacity="0.3"/>

  <!-- Tags -->
  <rect x="220" y="420" width="70" height="22" rx="11" fill="#3d5a80" opacity="0.6"/>
  <text x="255" y="435" text-anchor="middle" font-family="system-ui, sans-serif" font-size="10" fill="#a0b4c8">#REITs</text>
  <rect x="300" y="420" width="80" height="22" rx="11" fill="#3d5a80" opacity="0.6"/>
  <text x="340" y="435" text-anchor="middle" font-family="system-ui, sans-serif" font-size="10" fill="#a0b4c8">#收息投資</text>
  <rect x="390" y="420" width="90" height="22" rx="11" fill="#3d5a80" opacity="0.6"/>
  <text x="435" y="435" text-anchor="middle" font-family="system-ui, sans-serif" font-size="10" fill="#a0b4c8">#被動收入</text>
  <rect x="490" y="420" width="80" height="22" rx="11" fill="#3d5a80" opacity="0.6"/>
  <text x="530" y="435" text-anchor="middle" font-family="system-ui, sans-serif" font-size="10" fill="#a0b4c8">#領展0823</text>
</svg>
